<?xml version="1.0" encoding="utf-8"?>
<!-- Generator: Adobe Illustrator 28.0.0, SVG Export Plug-In . SVG Version: 6.00 Build 0)  -->
<svg version="1.1" id="Layer_1" xmlns="http://www.w3.org/2000/svg" xmlns:xlink="http://www.w3.org/1999/xlink" x="0px" y="0px"
	 viewBox="0 0 10 5" style="enable-background:new 0 0 10 5;" xml:space="preserve">
<style type="text/css">
	.st0{fill:#00AEEF;}
	.st1{fill:none;stroke:#231F20;stroke-width:0.18;stroke-miterlimit:10;}
	.st2{fill:#FFFFFF;}
	.st3{fill:#231F20;stroke:#FFFFFF;stroke-width:0.05;stroke-miterlimit:10;}
</style>
<g>
	<path class="st0" d="M7.75,4.5H2.25c-1.15,0-2.07-0.93-2.07-2.07v0c0-1.15,0.93-2.07,2.07-2.07h5.49c1.15,0,2.07,0.93,2.07,2.07v0
		C9.82,3.57,8.89,4.5,7.75,4.5z"/>
	<path class="st1" d="M7.75,4.5H2.25c-1.15,0-2.07-0.93-2.07-2.07v0c0-1.15,0.93-2.07,2.07-2.07h5.49c1.15,0,2.07,0.93,2.07,2.07v0
		C9.82,3.57,8.89,4.5,7.75,4.5z"/>
	<path class="st2" d="M7.75,0.45c1.09,0,1.97,0.89,1.97,1.97S8.83,4.4,7.75,4.4H2.25c-1.09,0-1.97-0.89-1.97-1.97
		s0.89-1.97,1.97-1.97H7.75 M7.75,0.35H2.25c-1.15,0-2.07,0.93-2.07,2.07S1.11,4.5,2.25,4.5h5.49c1.15,0,2.07-0.93,2.07-2.07
		S8.89,0.35,7.75,0.35L7.75,0.35z"/>
</g>
<g>
	<path class="st3" d="M1.31,3.15L1.65,1.4h0.13l0.49,1.29L2.75,1.4h0.13l0.34,1.75H3.04L2.78,1.81L2.32,3.03H2.21L1.75,1.81
		L1.49,3.15H1.31z"/>
	<path class="st3" d="M4.07,3.18c-0.12,0-0.22-0.03-0.31-0.09C3.66,3.03,3.59,2.95,3.53,2.85c-0.06-0.1-0.08-0.21-0.08-0.33
		c0-0.09,0.02-0.18,0.05-0.26c0.03-0.08,0.08-0.15,0.13-0.21s0.12-0.11,0.2-0.14s0.16-0.05,0.24-0.05c0.11,0,0.22,0.03,0.31,0.09
		c0.09,0.06,0.17,0.14,0.23,0.24S4.7,2.4,4.7,2.52c0,0.09-0.02,0.18-0.05,0.25C4.61,2.85,4.57,2.92,4.51,2.98
		c-0.06,0.06-0.12,0.11-0.2,0.14C4.24,3.16,4.16,3.18,4.07,3.18z M4.07,3C4.16,3,4.23,2.98,4.3,2.94c0.07-0.04,0.12-0.1,0.16-0.18
		s0.06-0.15,0.06-0.24c0-0.09-0.02-0.17-0.06-0.24S4.37,2.15,4.3,2.1C4.23,2.06,4.15,2.04,4.07,2.04c-0.08,0-0.16,0.02-0.23,0.07
		c-0.07,0.04-0.12,0.1-0.16,0.18S3.62,2.43,3.62,2.52c0,0.09,0.02,0.17,0.06,0.24c0.04,0.07,0.1,0.13,0.16,0.17S3.99,3,4.07,3z"/>
	<path class="st3" d="M6.01,2.37v0.77H5.83V2.41c0-0.07-0.02-0.13-0.05-0.19c-0.03-0.06-0.08-0.1-0.13-0.13
		C5.6,2.05,5.53,2.04,5.46,2.04c-0.07,0-0.13,0.02-0.19,0.05c-0.06,0.03-0.1,0.08-0.13,0.13C5.11,2.28,5.1,2.34,5.1,2.41v0.74H4.92
		V1.9H5.1v0.17C5.14,2,5.2,1.95,5.27,1.92C5.34,1.88,5.42,1.86,5.5,1.86c0.09,0,0.18,0.02,0.26,0.07S5.9,2.04,5.94,2.11
		S6.01,2.28,6.01,2.37z"/>
	<path class="st3" d="M6.9,2.07H6.6l0,1.08H6.42l0-1.08H6.2V1.9h0.23l0-0.39H6.6l0,0.39h0.3V2.07z"/>
	<path class="st3" d="M8.21,2.37v0.77H8.04V2.41c0-0.07-0.02-0.13-0.05-0.19c-0.03-0.06-0.08-0.1-0.13-0.13
		C7.8,2.05,7.74,2.04,7.67,2.04c-0.07,0-0.13,0.02-0.19,0.05c-0.06,0.03-0.1,0.08-0.13,0.13C7.31,2.28,7.3,2.34,7.3,2.41v0.74H7.12
		V1.27H7.3v0.8C7.34,2,7.4,1.95,7.47,1.92C7.54,1.88,7.62,1.86,7.7,1.86c0.09,0,0.18,0.02,0.26,0.07S8.1,2.04,8.14,2.11
		S8.21,2.28,8.21,2.37z"/>
</g>
</svg>
